grf
version=1
nRows=18
nColumns=28
inDegrees=no
endheader
time	ground_force_1_vx	ground_force_1_vy	ground_force_1_vz	ground_force_1_px	ground_force_1_py	ground_force_1_pz	ground_moment_1_mx	ground_moment_1_my	ground_moment_1_mz	ground_force_2_vx	ground_force_2_vy	ground_force_2_vz	ground_force_2_px	ground_force_2_py	ground_force_2_pz	ground_moment_2_mx	ground_moment_2_my	ground_moment_2_mz	ground_force_3_vx	ground_force_3_vy	ground_force_3_vz	ground_force_3_px	ground_force_3_py	ground_force_3_pz	ground_moment_3_mx	ground_moment_3_my	ground_moment_3_mz
      0.00000000	      0.44445994	      0.24690079	      0.95077797	    171.19513812	  -1414.31130170	      2.38074480	      0.02613559	      0.09450663	     51.78454258	      1.03423092	     -4.59530210	      2.88223010	    168.74703271	  -1715.46243883	      0.15744301	      0.08675552	      1.12200379	  -1344.46732323	      1.50259362	     -0.65589792	      4.46907516	    451.34444800	   -287.02156379	      0.38755127	     -0.11005832	      0.80848041	    393.68156838
      0.01000000	      0.32337149	      0.11710680	      0.67733414	     87.09943407	  -1313.23655222	      2.23872669	      0.05223570	      0.18888495	    103.49878353	      0.83767009	     -4.24301239	      3.04078158	    200.68180533	  -1659.44516398	      0.20625202	      0.06879944	      0.88977895	  -1066.19846553	      1.70021831	     -0.72030835	      4.71673305	    453.28639894	   -298.97591862	      0.41264411	     -0.09455171	      0.69456995	    338.21399283
      0.02000000	      0.19415560	      0.19156781	      1.18302400	    264.52079207	  -1320.87477376	      2.16312210	      0.04851057	      0.17541485	     96.11789368	      0.82221543	     -3.91667919	      3.07580446	    222.74272160	  -1653.25193564	      0.21284402	      0.05966066	      0.77158756	   -924.57285986	      1.49411133	     -0.55091341	      4.56295986	    475.01778858	   -300.57868613	      0.42201089	     -0.07546343	      0.55434882	    269.93469397
      0.03000000	      0.20126375	      0.30953772	      1.53548205	    334.08720071	  -1320.34016335	      2.12703637	      0.05017506	      0.18143365	     99.41587257	      0.96025626	     -3.57595400	      2.89859912	    174.47683607	  -1645.10415814	      0.21652913	      0.06151631	      0.79558658	   -953.33025600	      1.50481857	     -0.55835522	      4.34730097	    483.02436004	   -268.89302167	      0.35917826	     -0.12741528	      0.93598332	    455.76785446
      0.04000000	      0.27743077	      0.19039082	      0.70844047	    142.85414489	  -1343.27403706	      2.26540568	      0.04392083	      0.15881829	     87.02386871	      0.48667645	     -3.13299871	      2.80265854	    153.58685375	  -1639.00045561	      0.22027489	      0.06341922	      0.82019687	   -982.82010522	      1.63591056	     -0.47321110	      4.32308827	    482.14063117	   -335.83885035	      0.49641386	     -0.09728480	      0.71464704	    347.99033516
      0.05000000	      0.44433147	      0.28787001	      0.87238572	    156.21190892	  -1271.96575215	      2.12852664	      0.08493233	      0.30711639	    168.28324347	      0.28355384	     -2.45602141	      2.79738457	    203.83788358	  -1668.90848524	      0.19855821	      0.04184897	      0.54123008	   -648.54161810	      1.70009444	     -0.65525024	      4.23227398	    442.32293118	   -219.51979971	      0.24640484	     -0.15315252	      1.12504725	    547.83067254
      0.06000000	      0.13966468	      0.37841874	      0.77653607	    195.55102909	  -1348.83222406	      2.24895331	      0.08899135	      0.32179386	    176.32570635	      0.55326843	     -2.33298756	      2.90380757	    186.34713546	  -1622.01218696	      0.23656613	      0.03997602	      0.51700738	   -619.51620295	      1.70242884	     -0.62263538	      4.65792630	    430.96650980	   -276.78051994	      0.36082296	     -0.10679500	      0.78450829	    382.00858108
      0.07000000	      0.14271251	      0.20269284	      0.72490223	    188.19532705	  -1530.70748057	      2.58458749	      0.04183650	      0.15128134	     82.89402647	     -0.35953839	    -26.66274912	    -27.72875848	    469.40330767	  -1945.42758212	     -0.01507005	     -0.03883100	     -0.50219887	    601.77155699	      1.58120370	     -0.37493533	      3.84560489	    450.80702843	   -233.77699063	      0.27805582	     -0.13421396	      0.98592596	    480.08693309
      0.08000000	      0.28962924	      0.43144918	      0.99907564	    216.21887369	  -1471.52048836	      2.46242797	      0.06468668	      0.23390787	    128.16891857	      7.78908903	      3.38189499	   -124.17950526	    454.13447124	  -1910.31735729	      0.01324537	      0.00923196	      0.11939633	   -143.06944284	      1.45575333	     -0.70790019	      4.08056209	    462.92383602	   -284.12482191	      0.38483956	     -0.12636013	      0.92823226	    451.99355292
      0.09000000	      0.34493290	      0.22051701	      1.13558609	    257.37922602	  -1292.63396460	      2.11518705	      0.04537757	      0.16408587	     89.91021988	    -22.81350732	     56.88103073	   -244.90900436	    461.81268673	  -1906.33738981	      0.01706225	      0.05057441	      0.65407571	   -783.76153295	      1.66538742	     -0.56981769	      4.72590680	    467.45240465	   -290.02251572	      0.39821732	     -0.11971078	      0.87938665	    428.20866521
      0.10000000	      0.32377057	      0.12703687	      1.50416341	    322.67823589	  -1321.74754196	      2.13536292	      0.02260821	      0.08175159	     44.79546934	    -56.60496510	     28.34436941	   -388.11457253	    471.33976298	  -1893.77184068	      0.02816339	      0.07085111	      0.91631305	  -1097.99357096	      1.58168959	     -0.65488529	      4.62668369	    498.03262908	   -315.95408536	      0.46002050	     -0.08596293	      0.63147743	    307.49171214
      0.11000000	      0.17258382	      0.16554443	      1.03354999	    338.72972178	  -1413.11624791	      2.29400936	      0.05671670	      0.20508832	    112.37735893	    -74.57025768	    -77.60305169	   -554.71080787	    474.73638143	  -1874.70917508	      0.04429101	     -0.00965945	     -0.12492510	    149.69442399	      1.55587200	     -0.23799884	      4.50984772	    461.92206860	   -287.13254125	      0.39073628	     -0.10802525	      0.79354561	    386.40921781
      0.12000000	      0.18327006	      0.17140589	      0.88203422	    335.04738798	  -1467.69764511	      2.39547870	      0.05699765	      0.20610425	    112.93402884	    -74.56396227	   -145.76824557	   -713.52129330	    471.91898648	  -1857.53688937	      0.05844006	     -0.12411514	     -1.60517341	   1923.43663054	      1.47592518	     -0.38255475	      4.23966304	    445.99208862	   -320.88383747	      0.45559589	     -0.08582354	      0.63045344	    306.99308873
      0.13000000	      0.26029179	      0.25495022	      0.83159248	    428.71826980	  -1466.70592868	      2.34639325	      0.02054296	      0.07428362	     40.70342124	    -49.59087360	   -169.51653012	   -866.71049147	    466.58246765	  -1844.91753119	      0.06862699	     -0.09300961	     -1.20288753	   1441.38815898	      1.31461066	     -0.54730066	      3.78875562	    519.58921978	   -273.77157439	      0.37941919	     -0.12981465	      0.95360897	    464.35048944
      0.14000000	      0.49831209	      0.22056223	      0.78395379	    374.22655607	  -1581.90191311	      2.58412746	     -0.04384012	     -0.15852643	    -86.86394575	      0.13924104	   -212.98184367	   -969.43815403	    462.61432003	  -1836.51368688	      0.07538423	      0.09188514	      1.18834476	  -1423.96194239	      1.73673081	     -0.64982368	      4.29917685	    431.77304252	   -280.44446321	      0.36857285	     -0.13602728	      0.99924646	    486.57321967
      0.15000000	      0.64701017	     -0.04105848	      0.70958808	    398.63699755	  -1715.70331535	      2.81599468	     -0.10958195	     -0.39624976	   -217.12353468	     28.02268212	   -213.78494757	   -994.85110599	    460.28903545	  -1830.97917586	      0.07985293	      0.13979779	      1.80799615	  -2166.47372843	      1.73945203	     -0.69427930	      4.54965147	    490.83358522	   -283.10182422	      0.39054119	     -0.15001358	      1.10198877	    536.60257227
      0.16000000	      0.32604672	      0.16466223	      0.84258940	    352.48656380	  -1546.70233833	      2.53086049	      0.00172164	      0.00622549	      3.41123333	     33.40762376	   -236.21944660	  -1022.12539913	    458.97534077	  -1824.39586685	      0.08526215	      0.01807482	      0.23376055	   -280.10904897	      1.65554046	     -0.77640539	      4.66098590	    499.82832076	   -282.55424673	      0.39193125	     -0.12035029	      0.88408446	    430.49621501
      0.17000000	      0.49613576	     -0.06547361	      0.58545198	    390.56374237	  -1680.62734208	      2.75605570	     -0.04670583	     -0.16888890	    -92.54202170	     40.53972472	   -249.47345940	  -1087.33386651	    458.58865044	  -1819.45872427	      0.08935741	      0.06856748	      0.88677896	  -1062.60365805	      1.75708722	     -0.58604586	      4.54412573	    510.96078278	   -291.16543652	      0.41272775	     -0.11728552	      0.86157086	    419.53344320
